# Blender 3.3.1
# www.blender.org
mtllib key.mtl
o Key
v -31.829161 24.694948 5.271567
v -31.811563 24.694948 5.271567
v -31.830631 24.692471 5.228573
v -31.810093 24.692471 5.228573
v -31.830631 24.649475 5.231052
v -31.810093 24.649475 5.231052
v -31.829161 24.651955 5.274046
v -31.811563 24.651955 5.274046
v -31.813591 24.656624 5.268806
v -31.813591 24.689709 5.266899
v -31.813591 24.654716 5.235721
v -31.813591 24.687801 5.233813
v -31.827133 24.656624 5.268806
v -31.827133 24.689709 5.266899
v -31.827133 24.687801 5.233813
v -31.827133 24.654716 5.235721
v -31.809319 24.669134 5.224419
v -31.831406 24.669134 5.224419
v -31.828859 24.669844 5.230616
v -31.811865 24.669844 5.230616
v -31.811865 24.673212 5.272082
v -31.809319 24.673512 5.278303
v -31.831406 24.673512 5.278303
v -31.828859 24.673212 5.272082
v -31.811865 24.651459 5.252629
v -31.809319 24.645243 5.253024
v -31.831406 24.645243 5.253024
v -31.828859 24.651459 5.252629
v -31.811865 24.692972 5.250082
v -31.809319 24.699188 5.249714
v -31.831406 24.699188 5.249714
v -31.828859 24.692972 5.250082
v -31.829161 24.668554 5.281893
v -31.811563 24.668554 5.281893
v -31.809319 24.673941 5.282417
v -31.831406 24.673941 5.282417
v -31.811563 24.679361 5.281270
v -31.829161 24.679361 5.281270
v -31.829161 24.673183 5.362187
v -31.811563 24.673183 5.362187
v -31.809319 24.678572 5.362711
v -31.831406 24.678572 5.362711
v -31.811563 24.683990 5.361564
v -31.829161 24.683990 5.361564
v -31.809319 24.678043 5.353552
v -31.811563 24.672655 5.353028
v -31.829161 24.672655 5.353028
v -31.831406 24.678043 5.353552
v -31.829161 24.683464 5.352405
v -31.811563 24.683464 5.352405
v -31.809319 24.677633 5.346449
v -31.811563 24.672247 5.345926
v -31.829161 24.672247 5.345926
v -31.831406 24.677633 5.346449
v -31.829161 24.683054 5.345303
v -31.811563 24.683054 5.345303
v -31.809319 24.676895 5.333651
v -31.811563 24.671509 5.333127
v -31.829161 24.671509 5.333127
v -31.831406 24.676895 5.333651
v -31.829161 24.682316 5.332504
v -31.811563 24.682316 5.332504
v -31.809319 24.676458 5.326058
v -31.811563 24.671070 5.325534
v -31.829161 24.671070 5.325534
v -31.831406 24.676458 5.326058
v -31.829161 24.681877 5.324911
v -31.811563 24.681877 5.324911
v -31.811563 24.649399 5.347243
v -31.829161 24.649399 5.347243
v -31.811563 24.649807 5.354346
v -31.829161 24.649807 5.354346
v -31.811563 24.648222 5.326851
v -31.829161 24.648222 5.326851
v -31.811563 24.648661 5.334444
v -31.829161 24.648661 5.334444
v -31.821314 24.648260 5.228575
v -31.821398 24.643877 5.252842
v -31.821178 24.650837 5.273282
v -31.821178 24.668282 5.281432
v -31.821178 24.670898 5.326812
v -31.821178 24.646879 5.328197
v -31.821178 24.647335 5.336092
v -31.821178 24.671354 5.334707
v -31.821178 24.672121 5.348016
v -31.821178 24.648102 5.349401
v -31.821178 24.648527 5.356786
v -31.821178 24.672548 5.355402
v -31.821178 24.673096 5.364925
v -31.821398 24.678761 5.365466
v -31.821178 24.684458 5.364270
v -31.821178 24.683908 5.354746
v -31.821178 24.683483 5.347361
v -31.821178 24.682716 5.334052
v -31.821178 24.682261 5.326157
v -31.821178 24.679644 5.280777
v -31.821178 24.696035 5.270676
v -31.821398 24.700588 5.249365
v -31.821314 24.693459 5.225969
v -31.821398 24.668930 5.221664
v -31.821806 24.673124 5.270229
v -31.821537 24.658014 5.267246
v -31.821806 24.653309 5.252511
v -31.821537 24.656277 5.237111
v -31.821806 24.670055 5.232461
v -31.821537 24.686411 5.235373
v -31.821806 24.691120 5.250192
v -31.821537 24.688148 5.265508
vn -0.1202 0.9714 0.2047
vn 0.0013 0.9787 0.2051
vn -0.0016 0.9787 0.2051
vn -0.2697 0.1723 -0.9474
vn 0.0016 0.1780 -0.9840
vn -0.0010 0.1780 -0.9840
vn -0.1549 -0.9707 -0.1837
vn 0.0016 -0.9826 -0.1855
vn -0.0008 -0.9826 -0.1855
vn -0.2877 -0.1552 0.9451
vn 0.0160 -0.1501 0.9885
vn -0.0163 -0.1513 0.9884
vn 0.9899 -0.1095 -0.0901
vn 0.9511 -0.0450 -0.3056
vn 0.9257 -0.0218 -0.3777
vn 0.8888 0.4573 0.0309
vn 0.8878 -0.0280 0.4594
vn 0.9257 -0.3777 0.0218
vn -0.9511 -0.0450 -0.3056
vn -0.9899 -0.1095 -0.0900
vn -0.9257 -0.0218 -0.3777
vn -0.9257 -0.3777 0.0218
vn -0.8878 -0.0280 0.4594
vn -0.8888 0.4573 0.0309
vn -0.3158 0.6323 -0.7074
vn -0.2795 -0.0556 -0.9585
vn -0.0070 -0.0577 -0.9983
vn 0.0052 0.6666 -0.7454
vn -0.2795 0.9586 -0.0550
vn -0.0070 0.9983 -0.0575
vn 0.0054 0.7677 0.6408
vn -0.3157 0.7261 0.6108
vn -0.2795 -0.9586 0.0553
vn -0.0070 -0.9983 0.0575
vn 0.0051 -0.7440 -0.6682
vn -0.3158 -0.7062 -0.6337
vn -0.3157 -0.6132 0.7241
vn -0.2794 0.0533 0.9587
vn -0.0070 0.0570 0.9984
vn 0.0049 -0.6437 0.7652
vn -0.2696 -0.3117 -0.9111
vn -0.0011 -0.3227 -0.9465
vn 0.0017 -0.3227 -0.9465
vn -0.8901 0.0870 0.4474
vn 0.8901 0.0870 0.4474
vn 0.9511 0.0092 -0.3087
vn 0.9892 0.0920 -0.1140
vn -0.2892 0.2584 0.9217
vn -0.0160 0.2595 0.9656
vn 0.0158 0.2583 0.9659
vn -0.9892 0.0919 -0.1141
vn -0.9511 0.0092 -0.3087
vn 0.9257 0.3777 -0.0218
vn -0.1133 -0.9416 0.3172
vn -0.0015 -0.9480 0.3182
vn 0.0013 -0.9480 0.3182
vn -0.9257 0.3777 -0.0218
vn 0.8889 -0.4503 0.0837
vn -0.1616 0.9415 -0.2959
vn -0.0008 0.9541 -0.2994
vn 0.0016 0.9542 -0.2993
vn -0.8889 -0.4503 0.0837
vn 0.0324 -0.4250 0.9046
vn -0.0001 -0.4253 0.9051
vn 0.0001 -0.4253 0.9051
vn 0.9324 -0.2078 0.2958
vn -0.9324 -0.2078 0.2958
vn 0.9892 0.0919 -0.1140
vn 0.9391 0.2314 0.2539
vn -0.0001 0.5265 0.8502
vn 0.0285 0.5263 0.8498
vn -0.0000 0.5265 0.8502
vn -0.9391 0.2314 0.2539
vn -0.0306 -0.9979 0.0575
vn -0.0000 -0.9983 0.0576
vn 0.0001 -0.9983 0.0576
vn 0.9221 -0.3862 0.0223
vn -0.9221 -0.3862 0.0223
vn 0.9254 0.3785 -0.0218
vn 0.0001 0.9983 -0.0576
vn -0.0388 0.9976 -0.0575
vn -0.0000 0.9983 -0.0576
vn -0.9254 0.3785 -0.0218
vn -0.0002 -0.9983 0.0576
vn 0.0003 -0.9983 0.0576
vn 0.0003 0.9983 -0.0576
vn -0.1749 -0.9830 0.0567
vn -0.0008 -0.9983 0.0576
vn 0.0011 -0.9983 0.0576
vn -0.0001 -0.9983 0.0576
vn 0.0002 -0.9983 0.0576
vn -0.0005 -0.9983 0.0576
vn 0.0007 -0.9983 0.0576
vn 0.2520 -0.0557 -0.9661
vn 0.0001 -0.0576 -0.9983
vn -0.0010 -0.0576 -0.9983
vn 1.0000 -0.0000 -0.0000
vn -0.0002 0.0576 0.9983
vn -0.2838 0.0552 0.9573
vn 0.0011 0.0576 0.9983
vn -1.0000 -0.0000 -0.0000
vn 0.1566 -0.0569 -0.9860
vn -0.0006 -0.0576 -0.9983
vn -0.0001 0.0576 0.9983
vn -0.1928 0.0565 0.9796
vn 0.0007 0.0576 0.9983
vn 0.1289 -0.9745 -0.1835
vn 0.0943 -0.9441 0.3159
vn -0.0269 -0.4251 0.9047
vn 0.0255 -0.9980 0.0575
vn -0.1305 -0.0571 -0.9898
vn 0.1459 -0.9877 0.0569
vn 0.1610 0.0568 0.9853
vn -0.2114 -0.0563 -0.9758
vn 0.2387 0.0559 0.9695
vn 0.2426 -0.1370 0.9604
vn 0.2437 0.2423 0.9391
vn 0.0322 0.9978 -0.0575
vn -0.0237 0.5263 0.8500
vn 0.1001 0.9740 0.2031
vn 0.1345 0.9456 -0.2961
vn 0.2263 0.1727 -0.9586
vn 0.2262 -0.3136 -0.9222
vn 0.2023 -0.0568 -0.9777
vn 0.2283 0.6489 -0.7258
vn 0.2023 0.9777 -0.0562
vn 0.2281 0.7452 0.6266
vn 0.2023 0.0541 0.9778
vn 0.2283 -0.6291 0.7431
vn 0.2023 -0.9777 0.0564
vn 0.2283 -0.7246 -0.6503
vn 0.2284 -0.7246 -0.6503
vt 0.375000 0.000000
vt 0.375000 1.000000
vt 0.625000 1.000000
vt 0.625000 0.000000
vt 0.375000 0.250000
vt 0.625000 0.250000
vt 0.375000 0.500000
vt 0.125000 0.250000
vt 0.875000 0.250000
vt 0.625000 0.500000
vt 0.125000 0.000000
vt 0.375000 0.750000
vt 0.875000 0.000000
vt 0.625000 0.750000
vt 0.875000 0.000000
vt 0.000000 1.000000
vt 0.000000 0.000000
vt 0.625000 0.000000
vt 1.000000 0.000000
vt 1.000000 1.000000
vt 0.875000 0.250000
vt 1.000000 0.000000
vt 1.000000 1.000000
vt 0.625000 0.250000
vt 0.000000 1.000000
vt 0.000000 0.000000
vt 0.000000 0.000000
vt 0.125000 0.000000
vt 0.000000 1.000000
vt 1.000000 1.000000
vt 0.375000 0.000000
vt 1.000000 0.000000
vt 0.000000 0.000000
vt 0.375000 0.250000
vt 0.000000 1.000000
vt 1.000000 1.000000
vt 0.125000 0.250000
vt 1.000000 0.000000
vt 0.757054 0.250000
vt 0.625000 0.382054
vt 0.375000 0.382054
vt 0.242946 0.250000
vt 0.242946 0.250000
vt 0.528215 0.000000
vt 0.757054 0.250000
vt 0.528215 1.000000
vt 0.751184 0.000000
vt 0.495264 1.000000
vt 0.751184 0.000000
vt 0.625000 0.873816
vt 0.248816 0.000000
vt 0.375000 0.873816
vt 0.248816 0.000000
vt 0.495264 0.000000
vt 0.875000 0.124264
vt 0.497058 0.000000
vt 0.875000 0.124264
vt 0.625000 0.625736
vt 0.375000 0.625736
vt 0.125000 0.124264
vt 0.125000 0.124264
vt 0.497058 1.000000
vt 0.625000 0.125184
vt 0.499266 0.000000
vt 0.625000 0.125184
vt 0.375000 0.125184
vt 0.375000 0.125184
vt 0.499266 1.000000
vt 0.375000 0.750000
vt 0.625000 0.750000
vt 0.625000 0.873816
vt 0.375000 0.873816
vt 0.625000 1.000000
vt 0.375000 1.000000
vt 0.375000 0.750000
vt 0.625000 0.750000
vt 0.625000 0.873816
vt 0.375000 0.873816
vt 0.625000 1.000000
vt 0.375000 1.000000
vt 0.625000 0.873816
vt 0.625000 0.750000
vt 0.375000 0.750000
vt 0.375000 0.873816
vt 0.375000 1.000000
vt 0.625000 1.000000
vt 0.625000 0.873816
vt 0.625000 0.750000
vt 0.375000 0.750000
vt 0.375000 0.873816
vt 0.375000 1.000000
vt 0.625000 1.000000
vt 0.625000 0.873816
vt 0.625000 0.750000
vt 0.375000 0.750000
vt 0.375000 0.873816
vt 0.375000 1.000000
vt 0.625000 1.000000
vt 0.625000 0.873816
vt 0.625000 0.750000
vt 0.375000 0.750000
vt 0.375000 0.873816
vt 0.375000 1.000000
vt 0.625000 1.000000
vt 0.625000 0.750000
vt 0.375000 0.750000
vt 0.625000 0.750000
vt 0.375000 0.750000
vt 0.625000 0.750000
vt 0.375000 0.750000
vt 0.625000 0.750000
vt 0.375000 0.750000
vt 0.488340 0.500000
vt 0.488340 0.625736
vt 0.488340 0.750000
vt 0.488340 0.750000
vt 0.488340 0.750000
vt 0.488340 0.750000
vt 0.488340 0.750000
vt 0.488340 0.750000
vt 0.488340 0.750000
vt 0.488340 0.750000
vt 0.488340 0.750000
vt 0.488340 0.750000
vt 0.488340 0.750000
vt 0.488340 0.873816
vt 0.488340 1.000000
vt 0.488340 1.000000
vt 0.488340 1.000000
vt 0.488340 1.000000
vt 0.488340 1.000000
vt 0.488340 1.000000
vt 0.488340 1.000000
vt 0.488340 0.000000
vt 0.488340 0.125184
vt 0.488340 0.250000
vt 0.488340 0.382054
vt 0.495264 0.414221
vt 0.000000 0.414221
vt 0.000000 0.585779
vt 0.497058 0.585779
vt 1.000000 0.585779
vt 1.000000 0.414221
vt 0.528215 0.414221
vt 0.000000 0.414221
vt 0.000000 0.585779
vt 0.499266 0.585779
vt 1.000000 0.585779
vt 1.000000 0.414221
s 1
usemtl initialShadingGroup
f 1/1/1 97/134/2 98/135/3 31/66/1
f 3/5/4 99/136/5 100/137/6 18/41/4
f 5/7/7 77/113/8 78/114/9 27/59/7
f 39/75/10 89/125/11 90/126/12 42/78/10
f 22/49/13 8/13/14 9/15/15 21/47/15
s 0
f 26/57/16 6/9/16 11/21/16 25/55/16
f 20/45/17 17/39/17 4/6/17 12/24/17
f 30/65/18 2/4/18 10/18/18 29/63/18
s 1
f 7/11/19 23/51/20 24/53/21 13/28/21
s 0
f 1/1/22 31/66/22 32/67/22 14/31/22
f 3/5/23 18/42/23 19/43/23 15/34/23
f 5/8/24 27/60/24 28/61/24 16/37/24
s 1
f 13/27/25 24/54/26 101/138/27 102/139/28
f 28/62/29 103/141/30 104/142/31 16/36/32
f 32/68/33 107/147/34 108/148/35 14/30/36
f 15/33/37 19/44/38 105/144/39 106/145/40
f 18/41/41 100/137/42 77/113/43 5/7/41
s 0
f 19/43/44 18/42/44 5/8/44 16/37/44
s 1
f 105/144/39 19/44/38 16/38/32 104/143/31
s 0
f 6/9/45 17/39/45 20/45/45 11/21/45
s 1
f 2/4/46 22/49/47 21/47/15 10/18/15
f 42/78/48 90/126/49 91/127/50 44/80/48
f 24/53/21 23/51/51 1/1/52 14/31/21
f 108/149/35 101/138/27 24/54/26 14/32/36
s 0
f 8/13/53 26/57/53 25/55/53 9/15/53
s 1
f 27/59/54 78/114/55 79/115/56 7/12/54
s 0
f 28/61/57 27/60/57 7/11/57 13/28/57
s 1
f 102/140/28 103/141/30 28/62/29 13/29/25
s 0
f 4/6/58 30/65/58 29/63/58 12/24/58
s 1
f 31/66/59 98/135/60 99/136/61 3/5/59
s 0
f 32/67/62 31/66/62 3/5/62 15/34/62
s 1
f 106/146/40 107/147/34 32/68/33 15/35/37
f 7/12/63 79/115/64 80/116/65 33/69/63
f 8/14/14 22/50/13 35/71/66 34/70/66
f 23/52/20 7/12/19 33/69/67 36/72/67
f 22/50/68 2/3/46 37/73/69 35/71/69
f 97/133/70 1/2/71 38/74/71 96/132/72
f 1/2/52 23/52/51 36/72/73 38/74/73
f 33/69/74 80/116/75 81/117/76 65/101/74
s 0
f 34/70/77 35/71/77 63/99/77 64/100/77
f 36/72/78 33/69/78 65/101/78 66/102/78
f 35/71/79 37/73/79 68/104/79 63/99/79
s 1
f 96/132/80 38/74/81 67/103/81 95/131/82
s 0
f 38/74/83 36/72/83 66/102/83 67/103/83
f 46/82/77 45/81/77 41/77/77 40/76/77
s 1
f 47/83/74 88/124/84 89/125/85 39/75/74
s 0
f 48/84/78 47/83/78 39/75/78 42/78/78
f 49/85/83 48/84/83 42/78/83 44/80/83
s 1
f 92/128/82 49/85/81 44/80/81 91/127/86
s 0
f 45/81/79 50/86/79 43/79/79 41/77/79
f 52/88/77 51/87/77 45/81/77 46/82/77
s 1
f 70/106/87 86/122/88 87/123/89 72/108/87
s 0
f 54/90/78 53/89/78 47/83/78 48/84/78
f 55/91/83 54/90/83 48/84/83 49/85/83
s 1
f 93/129/82 55/91/81 49/85/81 92/128/82
s 0
f 51/87/79 56/92/79 50/86/79 45/81/79
f 58/94/77 57/93/77 51/87/77 52/88/77
s 1
f 59/95/74 84/120/90 85/121/91 53/89/74
s 0
f 60/96/78 59/95/78 53/89/78 54/90/78
f 61/97/83 60/96/83 54/90/83 55/91/83
s 1
f 94/130/82 61/97/81 55/91/81 93/129/82
s 0
f 57/93/79 62/98/79 56/92/79 51/87/79
f 64/100/77 63/99/77 57/93/77 58/94/77
s 1
f 74/110/87 82/118/92 83/119/93 76/112/87
s 0
f 66/102/78 65/101/78 59/95/78 60/96/78
f 67/103/83 66/102/83 60/96/83 61/97/83
s 1
f 95/131/82 67/103/81 61/97/81 94/130/82
s 0
f 63/99/79 68/104/79 62/98/79 57/93/79
s 1
f 53/89/94 85/121/95 86/122/96 70/106/94
s 0
f 52/88/97 46/82/97 71/107/97 69/105/97
s 1
f 88/124/98 47/83/99 72/108/99 87/123/100
s 0
f 47/83/101 53/89/101 70/106/101 72/108/101
s 1
f 65/101/102 81/117/95 82/118/103 74/110/102
s 0
f 64/100/97 58/94/97 75/111/97 73/109/97
s 1
f 84/120/104 59/95/105 76/112/105 83/119/106
s 0
f 59/95/101 65/101/101 74/110/101 76/112/101
s 1
f 77/113/8 6/10/107 26/58/107 78/114/9
f 79/115/56 78/114/55 26/58/108 8/14/108
f 80/116/65 79/115/64 8/14/109 34/70/109
f 81/117/76 80/116/75 34/70/110 64/100/110
f 82/118/103 81/117/95 64/100/111 73/109/111
f 83/119/93 82/118/92 73/109/112 75/111/112
f 58/94/113 84/120/104 83/119/106 75/111/113
f 85/121/91 84/120/90 58/94/110 52/88/110
f 86/122/96 85/121/95 52/88/114 69/105/114
f 87/123/89 86/122/88 69/105/112 71/107/112
f 46/82/115 88/124/98 87/123/100 71/107/115
f 89/125/85 88/124/84 46/82/110 40/76/110
f 90/126/12 89/125/11 40/76/116 41/77/116
f 91/127/50 90/126/49 41/77/117 43/79/117
f 50/86/118 92/128/82 91/127/86 43/79/118
f 56/92/118 93/129/82 92/128/82 50/86/118
f 62/98/118 94/130/82 93/129/82 56/92/118
f 68/104/118 95/131/82 94/130/82 62/98/118
f 37/73/118 96/132/80 95/131/82 68/104/118
f 2/3/119 97/133/70 96/132/72 37/73/119
f 98/135/3 97/134/2 2/4/120 30/65/120
f 99/136/61 98/135/60 30/65/121 4/6/121
f 100/137/6 99/136/5 4/6/122 17/40/122
f 77/113/43 100/137/42 17/40/123 6/10/123
f 102/139/28 101/138/27 21/48/124 9/16/125
f 9/17/125 25/56/126 103/141/30 102/140/28
f 104/142/31 103/141/30 25/56/126 11/22/127
f 20/46/128 105/144/39 104/143/31 11/23/127
f 106/145/40 105/144/39 20/46/128 12/25/129
f 12/26/129 29/64/130 107/147/34 106/146/40
f 108/148/35 107/147/34 29/64/130 10/19/131
f 21/48/124 101/138/27 108/149/35 10/20/132
